<svg xmlns="http://www.w3.org/2000/svg" xmlns:xlink="http://www.w3.org/1999/xlink" width="181.55" height="181.55" viewBox="0 0 181.55 181.55">
  <defs>
    <filter id="Ellipse_5127" x="0" y="0" width="181.55" height="181.55" filterUnits="userSpaceOnUse">
      <feOffset dy="6" input="SourceAlpha"/>
      <feGaussianBlur stdDeviation="7.5" result="blur"/>
      <feFlood flood-color="#002b3c" flood-opacity="0.149"/>
      <feComposite operator="in" in2="blur"/>
      <feComposite in="SourceGraphic"/>
    </filter>
    <filter id="Ellipse_5115" x="10.752" y="10.752" width="160.046" height="160.046" filterUnits="userSpaceOnUse">
      <feOffset dy="6" input="SourceAlpha"/>
      <feGaussianBlur stdDeviation="7.5" result="blur-2"/>
      <feFlood flood-color="#002b3c" flood-opacity="0.149"/>
      <feComposite operator="in" in2="blur-2"/>
      <feComposite in="SourceGraphic"/>
    </filter>
  </defs>
  <g id="Group_15496" data-name="Group 15496" transform="translate(-996.5 -6315.694)">
    <g transform="matrix(1, 0, 0, 1, 996.5, 6315.69)" filter="url(#Ellipse_5127)">
      <ellipse id="Ellipse_5127-2" data-name="Ellipse 5127" cx="68.275" cy="68.275" rx="68.275" ry="68.275" transform="translate(22.5 153.05) rotate(-90)" fill="#fff"/>
    </g>
    <g transform="matrix(1, 0, 0, 1, 996.5, 6315.69)" filter="url(#Ellipse_5115)">
      <ellipse id="Ellipse_5115-2" data-name="Ellipse 5115" cx="57.523" cy="57.523" rx="57.523" ry="57.523" transform="translate(33.25 142.3) rotate(-90)" fill="#0096d1"/>
    </g>
    <g id="Group_15449" data-name="Group 15449" transform="translate(1057.854 6371.049)">
      <g id="Group_15448" data-name="Group 15448">
        <g id="Group_15447" data-name="Group 15447">
          <g id="Group_15446" data-name="Group 15446">
            <path id="Path_14880" data-name="Path 14880" d="M569.556,961.674a29.421,29.421,0,1,1,29.421-29.421A29.454,29.454,0,0,1,569.556,961.674Zm0-53.938a24.517,24.517,0,1,0,24.517,24.518A24.545,24.545,0,0,0,569.556,907.735Z" transform="translate(-540.135 -902.832)" fill="#fff"/>
          </g>
        </g>
      </g>
    </g>
    <g id="Group_15452" data-name="Group 15452" transform="translate(1072.564 6388.211)">
      <g id="Group_15451" data-name="Group 15451">
        <g id="Group_15450" data-name="Group 15450">
          <path id="Path_14881" data-name="Path 14881" d="M575.556,934.35H546.135V909.832h29.421Zm-24.517-4.9h19.614v-14.71H551.038Z" transform="translate(-546.135 -909.832)" fill="#fff"/>
        </g>
      </g>
    </g>
    <g id="Group_15455" data-name="Group 15455" transform="translate(1085.202 6390.583)">
      <g id="Group_15454" data-name="Group 15454" transform="translate(0 0)">
        <g id="Group_15453" data-name="Group 15453">
          <rect id="Rectangle_5884" data-name="Rectangle 5884" width="4.688" height="7.814" fill="#fff"/>
        </g>
      </g>
    </g>
  </g>
</svg>
