<svg xmlns="http://www.w3.org/2000/svg" width="138.074" height="53.682" viewBox="0 0 138.074 53.682">
  <g id="Group_16607" data-name="Group 16607" transform="translate(-17276.75 13131.84)">
    <path id="Path_1027" data-name="Path 1027" d="M386.661,87.073a31.574,31.574,0,0,1-5.214-.331c-.995-.182-1.447-.513-1.447-1.628V66.125c0-1.085.392-1.477,1.357-1.627a37.455,37.455,0,0,1,5.033-.3c5.455,0,9.283,1.567,9.283,6.119v.6a4.72,4.72,0,0,1-2.773,4.552,4.635,4.635,0,0,1,2.923,4.581v.512C395.824,85.355,392.268,87.073,386.661,87.073ZM391.6,70.556c0-2.11-1.357-2.893-5.214-2.893-.723,0-1.567.03-2.2.06v6.119h3.828c2.8,0,3.586-1.326,3.586-2.863Zm.121,9.555c0-1.658-.874-3.2-3.707-3.2H384.19v6.632c.723,0,1.838.06,2.471.06,3.858,0,5.064-.995,5.064-3.1Z" transform="translate(16896.75 -13183.558)" fill="#fff"/>
    <path id="Path_1028" data-name="Path 1028" d="M418.678,89.36H415.9a.6.6,0,0,1-.6-.6v-.693a7.773,7.773,0,0,1-4.732,1.507,5.134,5.134,0,0,1-3.708-1.266c-1.115-1.115-1.507-2.984-1.507-5.486V72.993a.631.631,0,0,1,.6-.633h2.773a.631.631,0,0,1,.6.633v9.826c0,1.507.121,2.382.694,2.894a2.611,2.611,0,0,0,1.869.542A8.511,8.511,0,0,0,415.3,85.05V72.993a.631.631,0,0,1,.6-.633h2.773a.631.631,0,0,1,.6.633V88.757A.6.6,0,0,1,418.678,89.36Z" transform="translate(16888.898 -13186.085)" fill="#fff"/>
    <path id="Path_1029" data-name="Path 1029" d="M437.971,75.431a14.338,14.338,0,0,0-5.41,1.4v11.8a.631.631,0,0,1-.6.632h-2.772a.631.631,0,0,1-.6-.632V72.868a.605.605,0,0,1,.6-.6h2.622a.6.6,0,0,1,.6.6V73.5c1.477-1.145,4.356-1.446,5.561-1.446a.6.6,0,0,1,.6.6v2.17A.6.6,0,0,1,437.971,75.431Z" transform="translate(16881.707 -13185.991)" fill="#fff"/>
    <path id="Path_1030" data-name="Path 1030" d="M450.479,89.367a27.67,27.67,0,0,1-5.708-.6.681.681,0,0,1-.573-.693V86.262a.5.5,0,0,1,.512-.483h.121c1.447.181,4.472.332,5.377.332,1.869,0,2.14-.633,2.14-1.447,0-.573-.362-.934-1.326-1.537l-4.13-2.532a5.5,5.5,0,0,1-2.532-4.472c0-3.014,1.9-4.521,5.727-4.521a22.345,22.345,0,0,1,5.366.6.656.656,0,0,1,.543.693v1.749c0,.362-.181.572-.483.572h-.121a44.334,44.334,0,0,0-4.973-.362c-1.446,0-2.079.331-2.079,1.266a2.156,2.156,0,0,0,1.205,1.548l3.949,2.411c2.532,1.537,2.893,3.044,2.893,4.581C456.386,87.286,454.427,89.367,450.479,89.367Z" transform="translate(16876.871 -13185.851)" fill="#fff"/>
    <path id="Path_1031" data-name="Path 1031" d="M473.223,87.094a12.426,12.426,0,0,1-2.05.211c-3.406,0-4.792-.754-4.792-4.793V73.048l-2.833-.11a.647.647,0,0,1-.6-.6V70.666a.6.6,0,0,1,.6-.6h2.833V66.029a.648.648,0,0,1,.6-.6l2.8-.483h.12a.436.436,0,0,1,.483.452v4.668H473.1a.6.6,0,0,1,.6.6v1.779a.6.6,0,0,1-.6.6H470.39v9.464c0,1.507.09,1.688,1.175,1.688h1.6c.392,0,.633.151.633.452v1.9C473.8,86.853,473.615,87.034,473.223,87.094Z" transform="translate(16871.066 -13183.789)" fill="#fff"/>
    <path id="Path_1032" data-name="Path 1032" d="M515.936,46.121c-18.651,0-33.771,10.611-33.771,23.7,0,7.524,5,14.227,12.786,18.569L489.325,99.8l14.743-7.788a46.661,46.661,0,0,0,11.867,1.506c18.652,0,33.771-10.61,33.771-23.7S534.587,46.121,515.936,46.121Zm-18.8,35.356a23.07,23.07,0,0,1-5.335-.543.645.645,0,0,1-.572-.6V78.161a.572.572,0,0,1,.572-.572h.061c1.205.15,4.219.3,5.334.3,2.683,0,3.5-.964,3.5-2.712,0-1.176-.573-1.778-2.562-2.954l-3.979-2.381c-2.8-1.658-3.557-3.406-3.557-5.516,0-3.315,1.929-5.727,7.535-5.727a33.709,33.709,0,0,1,5.787.543.611.611,0,0,1,.542.572v2.231a.515.515,0,0,1-.512.543h-.06c-1.99-.181-3.979-.3-5.938-.3-2.231,0-3.165.784-3.165,2.14,0,.995.512,1.6,2.472,2.683l3.617,2.019c3.315,1.838,4.19,3.768,4.19,6.149C505.067,78.222,503.167,81.477,497.139,81.477Zm27.881-.693a.46.46,0,0,1-.513.451h-3.044a.569.569,0,0,1-.483-.6V66.617c0-.211-.03-.3-.091-.3-.03,0-.09.09-.15.181l-3.832,8.257a1.089,1.089,0,0,1-.964.513h-1.169a1.089,1.089,0,0,1-.964-.513L509.949,66.5c-.06-.09-.12-.181-.15-.181-.06,0-.09.09-.09.3V80.632a.57.57,0,0,1-.482.6h-3.044a.46.46,0,0,1-.512-.451V60.046a1.209,1.209,0,0,1,1.205-1.206h2.471a1.269,1.269,0,0,1,1.116.724l4.551,9.223c.151.271.211.422.332.422s.18-.15.331-.422l4.552-9.223a1.267,1.267,0,0,1,1.115-.724h2.471a1.21,1.21,0,0,1,1.206,1.206Zm7.143.693a23.074,23.074,0,0,1-5.335-.543.645.645,0,0,1-.572-.6V78.161a.572.572,0,0,1,.572-.572h.061c1.205.15,4.219.3,5.335.3,2.682,0,3.5-.964,3.5-2.712,0-1.176-.573-1.778-2.562-2.954l-3.979-2.381c-2.8-1.658-3.557-3.406-3.557-5.516,0-3.315,1.929-5.727,7.535-5.727a33.709,33.709,0,0,1,5.787.543.611.611,0,0,1,.543.572v2.231a.516.516,0,0,1-.513.543h-.06c-1.99-.181-3.979-.3-5.938-.3-2.231,0-3.165.784-3.165,2.14,0,.995.512,1.6,2.471,2.683l3.617,2.019c3.315,1.838,4.19,3.768,4.19,6.149C540.091,78.222,538.192,81.477,532.163,81.477Z" transform="translate(16865.117 -13177.961)" fill="#1cb9ce"/>
  </g>
</svg>
